<?xml version="1.0" encoding="UTF-8" standalone="no"?>
<!-- Created with Inkscape (http://www.inkscape.org/) -->

<svg
   xmlns:dc="http://purl.org/dc/elements/1.1/"
   xmlns:cc="http://creativecommons.org/ns#"
   xmlns:rdf="http://www.w3.org/1999/02/22-rdf-syntax-ns#"
   xmlns:svg="http://www.w3.org/2000/svg"
   xmlns="http://www.w3.org/2000/svg"
   xmlns:sodipodi="http://sodipodi.sourceforge.net/DTD/sodipodi-0.dtd"
   xmlns:inkscape="http://www.inkscape.org/namespaces/inkscape"
   width="512"
   height="512"
   viewBox="0 0 512.00003 512.00002"
   id="svg2"
   version="1.1"
   inkscape:version="0.91 r13725"
   inkscape:export-filename="C:\Users\Luis\logolool.png"
   inkscape:export-xdpi="90"
   inkscape:export-ydpi="90"
   sodipodi:docname="Logo_Laser_Eyes.svg">
  <defs
     id="defs4" />
  <sodipodi:namedview
     id="base"
     pagecolor="#ffffff"
     bordercolor="#666666"
     borderopacity="1.0"
     inkscape:pageopacity="0.0"
     inkscape:pageshadow="2"
     inkscape:zoom="1.1868544"
     inkscape:cx="243.20792"
     inkscape:cy="216.39964"
     inkscape:document-units="px"
     inkscape:current-layer="layer1"
     showgrid="false"
     fit-margin-top="0"
     fit-margin-left="0"
     fit-margin-right="0"
     fit-margin-bottom="0"
     showguides="false"
     inkscape:window-width="1536"
     inkscape:window-height="801"
     inkscape:window-x="-8"
     inkscape:window-y="-8"
     inkscape:window-maximized="1"
     units="px" />
  <metadata
     id="metadata7">
    <rdf:RDF>
      <cc:Work
         rdf:about="">
        <dc:format>image/svg+xml</dc:format>
        <dc:type
           rdf:resource="http://purl.org/dc/dcmitype/StillImage" />
        <dc:title></dc:title>
      </cc:Work>
    </rdf:RDF>
  </metadata>
  <g
     inkscape:label="Layer 1"
     inkscape:groupmode="layer"
     id="layer1"
     transform="translate(-105.17858,-346.61218)">
    <path
       style="opacity:1;fill:#550000;fill-rule:evenodd;stroke:#aa0000;stroke-width:4;stroke-linecap:butt;stroke-linejoin:miter;stroke-opacity:1"
       d="m 283.31494,723.54804 c -2.41252,-5.58421 -29.75436,-54.12391 -29.75436,-54.12391 l 7.23755,-12.02753 -18.49594,6.01376 -22.51682,-40.37816 -8.4438,5.15467 -4.02085,-21.04819 -7.23754,-5.15466 6.43337,-20.18908 -19.70221,-57.13079 10.45423,-33.07573 26.53767,-15.46397 4.42294,3.00688 10.05214,-3.00688 4.42295,-10.30932 89.66513,-33.93484 21.31055,-2.57733 48.2503,15.46398 67.14832,43.38504 3.21669,7.73199 19.30012,21.47774 2.01044,24.05507 -7.63964,13.74576 6.03129,27.49151 -8.04171,9.02066 8.04171,13.74575 -6.43337,6.87288 8.04172,16.75263 -6.43338,9.02065 -4.82503,18.90042 -23.72306,31.35751 -9.65006,51.54658 -22.51681,-0.42956 -19.7022,19.75953 -16.8876,-10.30932 -24.12516,19.75953 -25.3314,-36.51216 -12.06257,0.42954 -7.63963,-12.02753 -16.48552,4.29555 -13.26884,-35.2235 z"
       id="path3347"
       inkscape:connector-curvature="0" />
    <path
       style="opacity:1;fill:#aa4400;fill-rule:evenodd;stroke:#803300;stroke-width:4;stroke-linecap:butt;stroke-linejoin:miter;stroke-opacity:1"
       d="m 354.96971,444.38815 -50.32311,41.9158 -21.60948,44.34598 0.56909,7.2905 24.45175,87.47602 13.64703,-6.07458 -1.70569,16.40321 7.9609,10.32696 -1.70569,2.43017 0.56752,4.85867 19.90224,7.2905 3.41292,-2.43017 2.84229,7.8968 28.4322,19.43967 18.19655,3.64442 35.82402,-30.98089 2.27476,-10.32696 0,-33.41105 12.50886,-94.76819 -3.41136,-4.25238 -8.52998,-22.47613 -13.07794,-9.72066 -22.60302,-32.34797 -0.25189,0.0249 1.247,1.7973 -23.40379,10.21732 1.22991,7.11775 12.79185,11.67244 -12.51043,8.20078 -18.63501,-7.50146 9.82827,-9.72067 -2.3836,-8.99975 -11.74232,-17.67228 -3.79385,-1.66607 z"
       id="path3349"
       inkscape:connector-curvature="0" />
    <path
       style="opacity:1;fill:#c87137;fill-rule:evenodd;stroke:#803300;stroke-width:4;stroke-linecap:butt;stroke-linejoin:miter;stroke-opacity:1"
       d="m 321.70499,621.16479 16.2061,-54.06593 18.76496,-18.83194 16.77474,-5.1636 7.39226,8.80849 10.80407,-9.71972 29.28472,33.41153 7.96089,25.51425 8.24521,15.79454 0.56864,29.76664 -0.85296,10.02346 -36.96129,31.58907 -17.912,-3.03741 -28.71608,-19.43943 -3.41182,-6.07483 -21.60813,-5.77107 -0.85295,-9.11224 -7.39227,-9.41597 z"
       id="path3351"
       inkscape:connector-curvature="0" />
    <path
       style="opacity:1;fill:#d45500;fill-rule:evenodd;stroke:#803300;stroke-width:4;stroke-linecap:butt;stroke-linejoin:miter;stroke-opacity:1"
       d="m 304.36162,486.9112 62.54987,-9.41598 6.25499,35.53772 -5.40354,7.26899 -3.42756,0.52089 -1.12002,-11.73851 -18.19633,-19.74318 -12.22565,5.46734 -12.7943,12.45339 -5.40203,20.04692 -31.84357,7.89726 0,-5.1636 z"
       id="path3357"
       inkscape:connector-curvature="0"
       sodipodi:nodetypes="ccccccccccccc" />
    <path
       style="opacity:1;fill:#ff0000;fill-rule:evenodd;stroke:#aa0000;stroke-width:4;stroke-linecap:butt;stroke-linejoin:miter;stroke-opacity:1"
       d="m 335.92087,566.79512 -12.22566,5.46734 -19.90223,-30.37411 9.38248,-13.66835 6.53931,-20.35066 12.79429,-13.36461 12.50997,-4.85986 17.91201,19.43944 1.42159,11.54216 -9.09816,1.82244 -1.13727,18.83196 3.69612,6.6823 z"
       id="path3353"
       inkscape:connector-curvature="0" />
    <path
       style="opacity:1;fill:#d45500;fill-rule:evenodd;stroke:#803300;stroke-width:4;stroke-linecap:butt;stroke-linejoin:miter;stroke-opacity:1"
       d="m 392.78439,481.44386 c -0.56863,2.12619 -13.93156,37.6639 -13.93156,37.6639 l 7.96089,4.25238 3.69613,-5.1636 22.17677,-16.40202 6.82362,2.12619 7.39227,13.3646 -0.56864,13.06088 -3.98045,6.98604 15.92179,-8.20101 7.67657,-7.89727 0.56863,-7.89727 -7.96089,-21.26188 -13.07861,-7.89727 z"
       id="path3359"
       inkscape:connector-curvature="0" />
    <path
       style="opacity:1;fill:#ff0000;fill-rule:evenodd;stroke:#aa0000;stroke-width:4;stroke-linecap:butt;stroke-linejoin:miter;stroke-opacity:1"
       d="m 390.22553,541.88835 -2.84317,-17.61699 2.55886,-6.6823 22.46108,-15.18706 7.39227,1.82244 7.39225,12.75713 -1.13727,12.14965 -3.69613,8.50476 7.10794,12.14964 3.41181,13.36461 -5.68635,10.63094 -12.50998,-5.46734 z"
       id="path3355"
       inkscape:connector-curvature="0" />
    <path
       style="opacity:1;fill:#aa0000;fill-rule:evenodd;stroke:#800000;stroke-width:3;stroke-linecap:butt;stroke-linejoin:miter;stroke-opacity:1"
       d="m 228.22918,480.41999 15.68135,17.61175 0.80417,63.57412 -6.43338,37.80083 -31.76477,-16.32309 -18.89804,-57.56035 10.05215,-35.22349 26.13558,-13.31621 z"
       id="path3361"
       inkscape:connector-curvature="0" />
    <path
       style="opacity:1;fill:#800000;fill-rule:evenodd;stroke:#aa0000;stroke-width:4;stroke-linecap:butt;stroke-linejoin:miter;stroke-opacity:1"
       d="m 470.68742,497.2384 c 0.28431,2.42993 14.78451,58.01456 14.78451,58.01456 l 8.24521,-14.27583 -1.99022,-23.38807 -20.47087,-22.17311 z"
       id="path3363"
       inkscape:connector-curvature="0" />
    <path
       style="opacity:1;fill:#ffcc00;fill-rule:evenodd;stroke:#aa0000;stroke-width:4;stroke-linecap:butt;stroke-linejoin:miter;stroke-opacity:1"
       d="m 322.41579,526.54942 5.17068,-9.80421 9.01489,-1.14759 8.08457,4.63876 1.95155,13.88052 -14.39845,0.52931 z"
       id="path4165"
       inkscape:connector-curvature="0"
       sodipodi:nodetypes="ccccccc" />
    <path
       style="opacity:1;fill:#ffcc00;fill-rule:evenodd;stroke:#aa0000;stroke-width:4;stroke-linecap:butt;stroke-linejoin:miter;stroke-opacity:1"
       d="m 397.67386,534.16646 6.52256,-9.9382 9.75354,-1.94825 7.15846,5.06122 1.12716,10.63911 -13.87196,1.28867 z"
       id="path4167"
       inkscape:connector-curvature="0"
       sodipodi:nodetypes="ccccccc" />
    <path
       style="opacity:1;fill:#784421;fill-rule:evenodd;stroke:#a05a2c;stroke-width:4;stroke-linecap:butt;stroke-linejoin:miter;stroke-opacity:1"
       d="m 367.75295,567.19008 c -1.20626,0.8591 -5.83024,8.37632 -5.83024,8.37632 l 16.08343,8.16154 12.66571,0 12.26362,-8.5911 -0.80418,-5.36943 -11.86153,-3.43644 -7.63963,5.15465 -9.8511,-5.79899 z"
       id="path4169"
       inkscape:connector-curvature="0" />
    <path
       style="opacity:1;fill:#280b0b;fill-rule:evenodd;stroke:#a05a2c;stroke-width:4;stroke-linecap:butt;stroke-linejoin:miter;stroke-opacity:1"
       d="m 367.06941,568.3062 12.35205,6.84181 -2.3349,7.6809 -15.29279,-7.22529 z"
       id="path4171"
       inkscape:connector-curvature="0"
       sodipodi:nodetypes="ccccc" />
    <path
       style="opacity:1;fill:#280b0b;fill-rule:evenodd;stroke:#a05a2c;stroke-width:4;stroke-linecap:butt;stroke-linejoin:miter;stroke-opacity:1"
       d="m 389.6569,575.14801 10.09327,-5.01173 2.84318,0 0.28432,5.46734 -11.04736,7.11791 z"
       id="path4173"
       inkscape:connector-curvature="0"
       sodipodi:nodetypes="cccccc" />
    <path
       style="fill:#550000;fill-opacity:1;fill-rule:evenodd;stroke:#800000;stroke-width:4;stroke-linecap:butt;stroke-linejoin:miter;stroke-opacity:1"
       d="m 241.9001,560.58567 -17.78934,-4.53873 -13.37231,-20.64393 -14.67614,-14.39008 3.81982,-10.09454 13.87196,4.93988 27.44235,-14.49748 z"
       id="path4211"
       inkscape:connector-curvature="0"
       sodipodi:nodetypes="cccccccc" />
  </g>
</svg>
